<svg width="822" height="922" viewBox="0 0 822 922" fill="none" xmlns="http://www.w3.org/2000/svg">
    <path d="M822 277C822 429.983 695.52 554 539.5 554C383.48 554 257 429.983 257 277C257 124.017 383.48 0 539.5 0C695.52 0 822 124.017 822 277Z" fill="#6A3EA1" fill-opacity="0.933333"/>
    <path d="M714 597.5C714 729.22 567.149 836 386 836C204.851 836 58 729.22 58 597.5C58 465.78 204.851 359 386 359C567.149 359 714 465.78 714 597.5Z" fill="#2853C1"/>
    <path d="M353 375C353 437.408 299.946 488 234.5 488C169.054 488 116 437.408 116 375C116 312.592 169.054 262 234.5 262C299.946 262 353 312.592 353 375Z" fill="#F7B758"/>
    <path d="M730 766.5C730 840.782 677.617 901 613 901C548.383 901 496 840.782 496 766.5C496 692.218 548.383 632 613 632C677.617 632 730 692.218 730 766.5Z" fill="#F1374E"/>
    <path d="M134 179C134 184.523 129.971 189 125 189C120.029 189 116 184.523 116 179C116 173.477 120.029 169 125 169C129.971 169 134 173.477 134 179Z" fill="#6A3EA1" fill-opacity="0.933333"/>
    <path d="M116 866C116 871.523 111.971 876 107 876C102.029 876 98 871.523 98 866C98 860.477 102.029 856 107 856C111.971 856 116 860.477 116 866Z" fill="#2853C1"/>
    <path d="M85 899C85 911.703 72.9117 922 58 922C43.0883 922 31 911.703 31 899C31 886.297 43.0883 876 58 876C72.9117 876 85 886.297 85 899Z" fill="#F1374E"/>
    <path d="M18 577C18 582.523 13.9706 587 9 587C4.02944 587 0 582.523 0 577C0 571.477 4.02944 567 9 567C13.9706 567 18 571.477 18 577Z" fill="#F7B758"/>
</svg>
